<?xml version="1.0" encoding="UTF-8" standalone="no"?>
<!DOCTYPE svg PUBLIC "-//W3C//DTD SVG 1.1//EN" "http://www.w3.org/Graphics/SVG/1.1/DTD/svg11.dtd">
<svg width="100%" height="100%" viewBox="0 0 240 240" version="1.1" xmlns="http://www.w3.org/2000/svg" xmlns:xlink="http://www.w3.org/1999/xlink" xml:space="preserve" xmlns:serif="http://www.serif.com/" style="fill-rule:evenodd;clip-rule:evenodd;stroke-linejoin:round;stroke-miterlimit:2;">
    <g transform="matrix(0.79733,0,0,0.77161,-369.211,-231.943)">
        <path d="M547.171,313.096C590.726,313.378 622.82,347.795 622.497,368.232C622.351,377.514 603.88,365.75 574.721,381.065C544.154,397.119 524.567,429.709 534.078,471.709C505.254,471.709 466.935,436.982 466.935,392.473C466.935,347.964 502.663,312.808 547.171,313.096Z" style="fill:rgb(39,38,37);"/>
    </g>
    <g transform="matrix(0.77161,0,0,0.77161,-342.267,-226.55)">
        <path d="M516.516,464.72C516.516,464.72 569.249,559.423 585.849,589.235C586.849,591.031 588.742,592.145 590.797,592.147C592.852,592.15 594.748,591.04 595.752,589.247C620.138,545.69 727.034,354.766 749.945,313.845C750.846,312.235 750.827,310.267 749.894,308.675C748.961,307.083 747.254,306.105 745.408,306.105L696.438,306.105C678.767,306.105 662.53,315.829 654.189,331.407C637.713,362.466 611.343,412.059 606.564,420.374C599.708,432.303 572.609,473.536 516.516,464.72Z" style="fill:rgb(39,38,37);"/>
    </g>
</svg>
